HIERARCHY
ROOT Hips
{
	OFFSET 15.585500 22.159004 44.358299
	CHANNELS 6 Xposition Yposition Zposition Zrotation Xrotation Yrotation
	JOINT Chest
	{
		OFFSET -0.128500 0.160400 6.566002
		CHANNELS 6 Xposition Yposition Zposition Zrotation Xrotation Yrotation
		JOINT Chest2
		{
			OFFSET 0.000000 0.000000 3.554802
			CHANNELS 6 Xposition Yposition Zposition Zrotation Xrotation Yrotation
			JOINT Neck
			{
				OFFSET 0.000000 0.000000 8.267998
				CHANNELS 6 Xposition Yposition Zposition Zrotation Xrotation Yrotation
				JOINT Head
				{
					OFFSET 0.000000 0.000002 2.173897
					CHANNELS 6 Xposition Yposition Zposition Zrotation Xrotation Yrotation
					End Site
					{
						OFFSET 0.000000 0.000000 7.718697
					}
				}
			}
			JOINT LeftCollar
			{
				OFFSET 2.057500 0.117599 5.946301
				CHANNELS 6 Xposition Yposition Zposition Zrotation Xrotation Yrotation
				JOINT LeftShoulder
				{
					OFFSET 4.957699 0.000000 0.000000
					CHANNELS 6 Xposition Yposition Zposition Zrotation Xrotation Yrotation
					JOINT LeftElbow
					{
						OFFSET 0.000000 0.000000 -8.465500
						CHANNELS 6 Xposition Yposition Zposition Zrotation Xrotation Yrotation
						JOINT LeftWrist
						{
							OFFSET 0.000000 -0.000002 -14.594898
							CHANNELS 6 Xposition Yposition Zposition Zrotation Xrotation Yrotation
							End Site
							{
								OFFSET 0.000000 0.000000 -2.173901
							}
						}
					}
				}
			}
			JOINT RightCollar
			{
				OFFSET -3.048500 -0.728800 6.604099
				CHANNELS 6 Xposition Yposition Zposition Zrotation Xrotation Yrotation
				JOINT RightShoulder
				{
					OFFSET -3.710299 0.000000 0.000000
					CHANNELS 6 Xposition Yposition Zposition Zrotation Xrotation Yrotation
					JOINT RightElbow
					{
						OFFSET 0.000000 0.000000 -10.450901
						CHANNELS 6 Xposition Yposition Zposition Zrotation Xrotation Yrotation
						JOINT RightWrist
						{
							OFFSET 0.000000 0.000000 -12.539200
							CHANNELS 6 Xposition Yposition Zposition Zrotation Xrotation Yrotation
							End Site
							{
								OFFSET 0.000000 -0.000002 -2.173901
							}
						}
					}
				}
			}
		}
	}
	JOINT LeftHip
	{
		OFFSET 2.442599 -0.601400 -2.767502
		CHANNELS 6 Xposition Yposition Zposition Zrotation Xrotation Yrotation
		JOINT LeftKnee
		{
			OFFSET 0.000000 -0.000002 -17.033703
			CHANNELS 6 Xposition Yposition Zposition Zrotation Xrotation Yrotation
			JOINT LeftAnkle
			{
				OFFSET 0.000000 -0.000002 -19.318800
				CHANNELS 6 Xposition Yposition Zposition Zrotation Xrotation Yrotation
				End Site
				{
					OFFSET 0.000000 -8.281900 0.000000
				}
			}
		}
	}
	JOINT RightHip
	{
		OFFSET -3.126200 -0.601400 -2.283501
		CHANNELS 6 Xposition Yposition Zposition Zrotation Xrotation Yrotation
		JOINT RightKnee
		{
			OFFSET 0.000000 -0.000002 -16.919401
			CHANNELS 6 Xposition Yposition Zposition Zrotation Xrotation Yrotation
			JOINT RightAnkle
			{
				OFFSET 0.000000 -0.000002 -18.035900
				CHANNELS 6 Xposition Yposition Zposition Zrotation Xrotation Yrotation
				End Site
				{
					OFFSET 0.000000 -9.230099 0.000000
				}
			}
		}
	}
}
MOTION
Frames: 6
Frame Time: 0.041667
24.755203 38.823803 8.207199 1.667147 -1.090818 12.197092 -0.128500 0.160403 6.566003 -1.955268 4.302916 12.887980 0.000003 -0.000000 3.554802 -20.162650 -6.214518 -5.266897 -0.000006 -0.000002 8.268003 32.727637 4.155021 -29.063076 0.000001 0.000011 2.173901 0.816739 6.551003 3.587741 2.057501 0.117601 5.946308 -28.215201 -8.589618 16.954398 4.957691 -0.000001 -0.000001 -1.275553 7.326689 -112.178904 -0.000009 0.000003 -8.465507 -124.815369 -198.261117 -50.831480 -0.000002 -0.000002 -14.594898 -659.533066 -30.079549 -305.378113 -3.048505 -0.728800 6.604101 22.732007 -6.860146 -14.835097 -3.710294 0.000003 0.000001 3.653309 -14.838022 70.205158 0.000002 0.000001 -10.450891 645.812035 -20.165739 709.874565 -0.000002 0.000004 -12.539195 98.485918 181.909985 -227.461255 2.442594 -0.601399 -2.767503 133.794417 1.838514 105.125504 -0.000000 -0.000002 -17.033707 -182.817185 43.930032 166.534519 -0.000003 0.000000 -19.318806 -135.938386 120.334778 398.129077 -3.126203 -0.601399 -2.283500 -122.739319 -32.438505 -82.012267 -0.000004 0.000000 -16.919392 292.292263 -55.362085 -219.876480 0.000002 -0.000002 -18.035894 167.454983 52.971030 -178.432900
24.767200 38.822609 8.203205 1.682249 -1.095617 12.307869 -0.128502 0.160405 6.566006 -1.974416 4.314356 13.038105 0.000000 -0.000005 3.554804 -20.143210 -6.197688 -5.255744 0.000000 -0.000002 8.267998 32.719451 4.090987 -29.487918 0.000000 0.000005 2.173900 0.762407 6.502270 3.498558 2.057509 0.117602 5.946303 -28.175353 -8.603648 16.935901 4.957692 -0.000000 0.000007 -1.233514 7.520276 -112.131680 -0.000001 -0.000005 -8.465506 -124.848085 -197.959482 -50.795407 -0.000002 -0.000000 -14.594893 -659.411980 -29.866761 -305.886907 -3.048497 -0.728800 6.604098 22.834314 -6.824257 -14.940077 -3.710294 0.000005 -0.000004 3.390717 -14.632114 69.726737 -0.000001 0.000000 -10.450888 645.589098 -19.732693 710.021605 0.000003 0.000003 -12.539199 98.546256 181.877638 -227.107260 2.442593 -0.601392 -2.767506 133.752617 1.831537 105.212828 -0.000002 -0.000001 -17.033710 -182.881471 43.928806 166.546199 -0.000005 -0.000001 -19.318802 -135.902979 120.344313 398.108668 -3.126205 -0.601398 -2.283497 -122.647002 -32.566007 -81.870705 -0.000001 0.000001 -16.919395 291.958895 -55.305876 -219.947555 0.000001 -0.000004 -18.035898 167.342094 52.956912 -178.374693
24.778500 38.821404 8.199295 1.699143 -1.101405 12.414525 -0.128497 0.160399 6.566005 -1.993881 4.323095 13.182534 0.000001 -0.000005 3.554806 -20.121526 -6.182704 -5.244215 -0.000005 0.000004 8.268000 32.716886 4.033073 -29.890598 -0.000000 0.000005 2.173895 0.710787 6.461030 3.409923 2.057503 0.117605 5.946305 -28.129231 -8.614509 16.923882 4.957695 0.000011 -0.000001 -1.192157 7.711135 -112.089866 0.000003 -0.000007 -8.465497 -124.868029 -197.644651 -50.750368 0.000001 0.000003 -14.594899 -659.359360 -29.737243 -306.434306 -3.048502 -0.728795 6.604102 22.944798 -6.778891 -15.040756 -3.710297 -0.000002 0.000001 3.135893 -14.433826 69.338906 0.000006 -0.000004 -10.450892 645.356489 -19.213269 710.152308 0.000003 0.000005 -12.539196 98.613383 181.841260 -226.757718 2.442596 -0.601396 -2.767501 133.712496 1.823647 105.292311 -0.000002 -0.000004 -17.033709 -182.936426 43.925179 166.553425 -0.000002 -0.000001 -19.318806 -135.863896 120.355542 398.085418 -3.126201 -0.601400 -2.283504 -122.557486 -32.688783 -81.731635 -0.000001 0.000000 -16.919397 291.642521 -55.253963 -220.013330 -0.000002 0.000003 -18.035896 167.237838 52.942914 -178.318344
24.788797 38.820309 8.195797 1.717624 -1.108109 12.518045 -0.128497 0.160401 6.566008 -2.013758 4.329426 13.320680 -0.000000 0.000005 3.554806 -20.098477 -6.168951 -5.232422 -0.000002 0.000003 8.268001 32.715821 3.980250 -30.270548 0.000001 0.000002 2.173896 0.663168 6.426410 3.320043 2.057503 0.117603 5.946303 -28.077026 -8.625431 16.917422 4.957694 0.000002 0.000003 -1.150599 7.899140 -112.051965 -0.000005 -0.000001 -8.465496 -124.875433 -197.308292 -50.693473 -0.000005 -0.000004 -14.594896 -659.295320 -29.625000 -307.012823 -3.048504 -0.728792 6.604103 23.059374 -6.728035 -15.130237 -3.710290 -0.000002 0.000002 2.893195 -14.234385 68.957972 0.000001 -0.000001 -10.450888 645.123498 -18.678395 710.295032 0.000004 0.000007 -12.539199 98.689513 181.801194 -226.413941 2.442593 -0.601399 -2.767503 133.674124 1.814829 105.364575 0.000001 -0.000001 -17.033703 -182.981820 43.918721 166.555201 -0.000003 -0.000001 -19.318798 -135.820757 120.368096 398.059381 -3.126200 -0.601402 -2.283498 -122.470742 -32.803705 -81.595188 -0.000004 -0.000002 -16.919392 291.343959 -55.206326 -220.074965 0.000000 0.000003 -18.035896 167.141190 52.929363 -178.264399
24.798100 38.819309 8.192497 1.737643 -1.115794 12.619333 -0.128502 0.160401 6.566003 -2.033807 4.333620 13.451532 -0.000004 -0.000002 3.554806 -20.074558 -6.155811 -5.220521 -0.000007 0.000002 8.267999 32.712146 3.931628 -30.628009 -0.000001 0.000003 2.173897 0.619794 6.397164 3.226755 2.057508 0.117602 5.946309 -28.019442 -8.637861 16.915288 4.957695 -0.000005 0.000005 -1.108140 8.083511 -112.017056 0.000000 0.000000 -8.465504 -124.867019 -196.941552 -50.623282 0.000000 0.000001 -14.594895 -659.216309 -29.536794 -307.614945 -3.048501 -0.728792 6.604102 23.174323 -6.675201 -15.202667 -3.710289 0.000007 0.000002 2.665930 -14.028031 68.580652 -0.000002 -0.000002 -10.450892 644.893785 -18.123518 710.454749 0.000006 0.000001 -12.539198 98.777602 181.757344 -226.080846 2.442592 -0.601401 -2.767507 133.637760 1.804474 105.430465 -0.000002 -0.000000 -17.033709 -183.018088 43.909357 166.551567 -0.000002 0.000004 -19.318800 -135.774243 120.381907 398.031022 -3.126201 -0.601401 -2.283497 -122.386581 -32.908712 -81.461405 -0.000004 -0.000002 -16.919399 291.064140 -55.163108 -220.133049 0.000001 -0.000003 -18.035896 167.052330 52.916535 -178.213801
24.806299 38.818604 8.189491 1.759221 -1.124451 12.718985 -0.128500 0.160397 6.566002 -2.053950 4.335302 13.574268 0.000000 0.000001 3.554807 -20.050087 -6.142749 -5.208170 0.000000 0.000002 8.267998 32.702642 3.886166 -30.964369 0.000001 0.000003 2.173901 0.580434 6.371837 3.128538 2.057508 0.117596 5.946304 -27.957139 -8.653402 16.916309 4.957688 0.000003 0.000002 -1.064774 8.264109 -111.984496 -0.000002 0.000004 -8.465498 -124.836228 -196.535715 -50.539479 0.000001 0.000007 -14.594903 -659.119047 -29.478864 -308.231766 -3.048502 -0.728801 6.604100 23.286213 -6.623373 -15.253863 -3.710290 0.000005 0.000006 2.457111 -13.808860 68.204548 0.000001 0.000001 -10.450891 644.657023 -17.542600 710.631459 0.000003 0.000005 -12.539196 98.893312 181.710120 -225.767614 2.442594 -0.601403 -2.767503 133.603322 1.792717 105.490578 -0.000000 -0.000004 -17.033703 -183.045819 43.897298 166.542579 -0.000003 0.000001 -19.318804 -135.724683 120.396769 398.000778 -3.126199 -0.601403 -2.283500 -122.304864 -33.002723 -81.330402 -0.000006 -0.000002 -16.919392 290.802407 -55.124514 -220.188920 -0.000002 0.000000 -18.035896 166.970395 52.904340 -178.166550
